<?xml version="1.0" encoding="utf-8"?>
<!-- Generator: Adobe Illustrator 19.1.0, SVG Export Plug-In . SVG Version: 6.00 Build 0)  -->
<svg version="1.1" id="Capa_1" xmlns="http://www.w3.org/2000/svg" xmlns:xlink="http://www.w3.org/1999/xlink" x="0px" y="0px"
	 viewBox="6 -6 512 512" style="enable-background:new 6 -6 512 512;" xml:space="preserve">
<style type="text/css">
	.st0{fill:#F44336;}
</style>
<g>
	<path class="st0" d="M262-6C120.6-6,6,108.6,6,250s114.6,256,256,256c141.4,0,256-114.6,256-256S403.4-6,262-6z M331.8,348.8
		c-12.6,14.1-30.8,22.4-54.6,24.9V410h-30.3v-36c-39.7-4.1-64.2-27.1-73.7-69.1l46.9-12.2c4.3,26.4,18.7,39.6,43.1,39.6
		c11.4,0,19.8-2.8,25.2-8.5s8.1-12.5,8.1-20.5c0-8.3-2.7-14.6-8.1-18.8c-5.4-4.3-17.3-9.7-35.9-16.2c-16.7-5.8-29.7-11.5-39.1-17.2
		c-9.4-5.6-17-13.5-22.8-23.7c-5.8-10.2-8.8-22.1-8.8-35.6c0-17.7,5.2-33.7,15.7-47.9c10.4-14.2,26.9-22.8,49.3-26V90h30.3v28
		c33.9,4.1,55.8,23.2,65.8,57.5l-41.8,17.1c-8.2-23.5-20.7-35.2-37.8-35.2c-8.6,0-15.4,2.6-20.6,7.9c-5.2,5.2-7.8,11.6-7.8,19.1
		c0,7.6,2.5,13.5,7.5,17.6c5,4.1,15.7,9.1,32.1,15.1c18,6.6,32.1,12.8,42.3,18.6c10.2,5.8,18.4,13.9,24.5,24.2
		c6.1,10.3,9.2,22.3,9.2,36.1C350.7,317.1,344.4,334.8,331.8,348.8z"/>
</g>
</svg>
